<svg xmlns="http://www.w3.org/2000/svg" viewBox="0 0 32 40" x="0px" y="0px"><title>user interface, ui basic, app, light, lamp</title><g data-name="Layer 14"><path d="M19,30H13a1,1,0,0,1,0-2h6a1,1,0,0,1,0,2Z"/><path d="M23,4.82A9.88,9.88,0,0,0,15.69,2,10.14,10.14,0,0,0,6,11.69a10,10,0,0,0,6,9.47V25a2,2,0,0,0,2,2h4a2,2,0,0,0,2-2V21.16A10,10,0,0,0,23,4.82Zm-2.07,7.63-4,8A1,1,0,0,1,16,21a.91.91,0,0,1-.23,0A1,1,0,0,1,15,20V16H12a1,1,0,0,1-.89-1.45l3-6A1,1,0,0,1,15,8h4a1,1,0,0,1,.88.53,1,1,0,0,1-.05,1l-1,1.45H20a1,1,0,0,1,.89,1.45Z"/><path d="M5,6a1,1,0,0,1-.71-.29l-2-2A1,1,0,0,1,3.71,2.29l2,2a1,1,0,0,1,0,1.42A1,1,0,0,1,5,6Z"/><path d="M4,13H3a1,1,0,0,1,0-2H4a1,1,0,0,1,0,2Z"/><path d="M3,21a1,1,0,0,1-.71-.29,1,1,0,0,1,0-1.42l2-2a1,1,0,0,1,1.42,1.42l-2,2A1,1,0,0,1,3,21Z"/><path d="M27,6a1,1,0,0,1-.71-.29,1,1,0,0,1,0-1.42l2-2a1,1,0,1,1,1.42,1.42l-2,2A1,1,0,0,1,27,6Z"/><path d="M29,13H28a1,1,0,0,1,0-2h1a1,1,0,0,1,0,2Z"/><path d="M29,21a1,1,0,0,1-.71-.29l-2-2a1,1,0,0,1,1.42-1.42l2,2a1,1,0,0,1,0,1.42A1,1,0,0,1,29,21Z"/></g><text x="0" y="47" fill="#000000" font-size="5px" font-weight="bold" font-family="'Helvetica Neue', Helvetica, Arial-Unicode, Arial, Sans-serif">Created by Hakim Fadhlullah</text><text x="0" y="52" fill="#000000" font-size="5px" font-weight="bold" font-family="'Helvetica Neue', Helvetica, Arial-Unicode, Arial, Sans-serif">from the Noun Project</text></svg>