<svg xmlns="http://www.w3.org/2000/svg" xmlns:xlink="http://www.w3.org/1999/xlink" version="1.1" x="0px" y="0px" viewBox="0 0 35.2011 36.225625" enable-background="new 0 0 35.2011 28.9805" xml:space="preserve"><path d="M7.2129,11.5566H0.0351C0.0351,1.3721,8.9179,0,17.6054,0s17.5704,1.3721,17.5704,11.5566h-7.2325  c-0.5039-6.5752-4.2187-6.206-10.1484-6.2627C11.9121,5.2344,7.7676,4.8555,7.2129,11.5566z M3.623,14.8291  c1.7617,0,3.2266,0.1055,3.5528-1.627c0.0449-0.2363,0.0703-0.5019,0.0703-0.8115h-0.084H0C0,14.9687,1.623,14.8291,3.623,14.8291z   M27.9902,12.3906h-0.0684c0,0.3115,0.0274,0.5801,0.0762,0.8115c0.3438,1.5977,1.8086,1.4991,3.5645,1.4991  c2.0097,0,3.6386,0.1328,3.6386-2.3106H27.9902z M24.457,11.5293c1.7148,1.7832,7.3281,9.3711,7.5293,10.2617v6.1631  c0,0.5654-0.4609,1.0264-1.0254,1.0264H3.5722c-0.5644,0-1.0254-0.461-1.0254-1.0264l-0.0019-6.1328  c0.2031-0.919,5.8164-8.5088,7.5332-10.292v-0.8936V9.6113c0-0.459,0.5273-0.4863,1.1797-0.4863h1.0644  c0.6504,0,1.1778,0.0273,1.1778,0.4863v0.8819v0.6855h7.5332v-0.6855V9.6113c0-0.459,0.5273-0.4863,1.1797-0.4863h1.0625  c0.6523,0,1.1816,0.0273,1.1816,0.4863v1.0244V11.5293z M14.1289,21.6494c0-0.5527-0.4473-0.999-0.9981-0.999  c-0.5527,0-1,0.4463-1,0.999c0,0.5498,0.4473,0.9971,1,0.9971C13.6816,22.6465,14.1289,22.1992,14.1289,21.6494z M14.1289,18.2256  c0-0.5528-0.4473-0.999-0.9981-0.999c-0.5527,0-1,0.4462-1,0.999c0,0.5498,0.4473,0.997,1,0.997  C13.6816,19.2226,14.1289,18.7754,14.1289,18.2256z M14.1289,14.8017c0-0.5527-0.4473-0.999-0.9981-0.999  c-0.5527,0-1,0.4463-1,0.999c0,0.5528,0.4473,0.9991,1,0.9991C13.6816,15.8008,14.1289,15.3545,14.1289,14.8017z M18.2363,21.6494  c0-0.5527-0.4473-0.999-0.998-0.999c-0.5528,0-0.9981,0.4463-0.9981,0.999c0,0.5498,0.4453,0.9971,0.9981,0.9971  C17.789,22.6465,18.2363,22.1992,18.2363,21.6494z M18.2363,18.2256c0-0.5528-0.4473-0.999-0.998-0.999  c-0.5528,0-0.9981,0.4462-0.9981,0.999c0,0.5498,0.4453,0.997,0.9981,0.997C17.789,19.2226,18.2363,18.7754,18.2363,18.2256z   M18.2363,14.8017c0-0.5527-0.4473-0.999-0.998-0.999c-0.5528,0-0.9981,0.4463-0.9981,0.999c0,0.5528,0.4453,0.9991,0.9981,0.9991  C17.789,15.8008,18.2363,15.3545,18.2363,14.8017z M22.3437,21.6494c0-0.5527-0.4453-0.999-0.998-0.999  c-0.5508,0-0.9981,0.4463-0.9981,0.999c0,0.5498,0.4473,0.9971,0.9981,0.9971C21.8984,22.6465,22.3437,22.1992,22.3437,21.6494z   M22.3437,18.2256c0-0.5528-0.4453-0.999-0.998-0.999c-0.5508,0-0.9981,0.4462-0.9981,0.999c0,0.5498,0.4473,0.997,0.9981,0.997  C21.8984,19.2226,22.3437,18.7754,22.3437,18.2256z M22.3437,14.8017c0-0.5527-0.4453-0.999-0.998-0.999  c-0.5508,0-0.9981,0.4463-0.9981,0.999c0,0.5528,0.4473,0.9991,0.9981,0.9991C21.8984,15.8008,22.3437,15.3545,22.3437,14.8017z"/><text x="0" y="43.9805" fill="#000000" font-size="5px" font-weight="bold" font-family="'Helvetica Neue', Helvetica, Arial-Unicode, Arial, Sans-serif">Created by HLD</text><text x="0" y="48.9805" fill="#000000" font-size="5px" font-weight="bold" font-family="'Helvetica Neue', Helvetica, Arial-Unicode, Arial, Sans-serif">from the Noun Project</text></svg>