<svg xmlns="http://www.w3.org/2000/svg" viewBox="0 0 64 80" x="0px" y="0px"><title>Location-map-marker-navigation</title><g><path d="M19.15,32.53,23.87,40l1.71,2.7,5.58,8.83a1,1,0,0,0,1.69,0L35.72,47l1.16-1.83L40.13,40l4.72-7.47.05-.09A15.84,15.84,0,0,0,48,23a16,16,0,0,0-32,0,15.85,15.85,0,0,0,3.1,9.44ZM32,17a6,6,0,1,1-6,6A6,6,0,0,1,32,17Z"/><polygon points="19.1 40 14.73 40 14.35 41.22 19.32 42.09 19.1 40"/><polygon points="22.69 40 21.11 40 21.37 42.45 24.59 43.01 22.69 40"/><path d="M51.92,49.83,36.78,47.18l-3.09,4.89a2,2,0,0,1-3.38,0L26,45.3l-4.45-.78L22.9,57H54.57Z"/><polygon points="37.94 45.35 51.12 47.66 48.3 40 41.31 40 37.94 45.35"/><polygon points="13.74 43.15 9.36 57 20.89 57 19.54 44.16 13.74 43.15"/></g><text x="0" y="79" fill="#000000" font-size="5px" font-weight="bold" font-family="'Helvetica Neue', Helvetica, Arial-Unicode, Arial, Sans-serif">Created by Nattapol Seengern</text><text x="0" y="84" fill="#000000" font-size="5px" font-weight="bold" font-family="'Helvetica Neue', Helvetica, Arial-Unicode, Arial, Sans-serif">from the Noun Project</text></svg>