<svg xmlns="http://www.w3.org/2000/svg" xmlns:xlink="http://www.w3.org/1999/xlink" version="1.1" x="0px" y="0px" viewBox="0 0 70 87.5" style="enable-background:new 0 0 70 70;" xml:space="preserve"><path d="M56.8640747,13.7810059H13.1359253c-1.3452759,0-2.4395752,1.0942993-2.4395752,2.4395752v26.9640503v4.9187012  c0,1.3452759,1.0942993,2.4395752,2.4395752,2.4395752h15.7971802l-1.1207886,4.203064h-1.4086914  c-0.4067383,0-0.7365112,0.3297729-0.7365112,0.7365112c0,0.4066772,0.3297729,0.7364502,0.7365112,0.7364502h1.9745483h13.2436523  h1.9745483c0.4067383,0,0.7365112-0.3297729,0.7365112-0.7364502c0-0.4067383-0.3297729-0.7365112-0.7365112-0.7365112h-1.4086914  l-1.1207886-4.203064h15.7971802c1.3452759,0,2.4395752-1.0942993,2.4395752-2.4395752v-4.9187012V16.2205811  C59.3036499,14.8753052,58.2093506,13.7810059,56.8640747,13.7810059z M13.1359253,15.2539673h43.7281494  c0.532959,0,0.9666138,0.4337158,0.9666138,0.9666138v26.2276001h-45.661377V16.2205811  C12.1693115,15.6876831,12.6029663,15.2539673,13.1359253,15.2539673z M40.6630859,54.7459717H29.3369141l1.1205444-4.203064  h9.085083L40.6630859,54.7459717z M57.8306885,48.1033325c0,0.532959-0.4336548,0.9666138-0.9666138,0.9666138H40.1082153  H29.8917847H13.1359253c-0.532959,0-0.9666138-0.4336548-0.9666138-0.9666138v-4.182251h45.661377V48.1033325z"/><path d="M34.1980591,47.2319946h1.6038818c0.4066772,0,0.7364502-0.3297729,0.7364502-0.7364502  c0-0.4067383-0.3297729-0.7365112-0.7364502-0.7365112h-1.6038818c-0.4066772,0-0.7364502,0.3297729-0.7364502,0.7365112  C33.4616089,46.9022217,33.7913818,47.2319946,34.1980591,47.2319946z"/><path d="M34.4429321,37.5100708c1.4909058,0,2.7372437-0.2454224,3.960022-0.8903198l-0.3551025-0.9564819  c-0.9129639,0.5117188-2.0922852,0.7780151-3.3603516,0.7780151c-3.2915039,0-5.7171631-2.2906494-5.7171631-6.0060425  c0-4.5170288,3.0488281-7.3864746,6.6754761-7.3864746c3.4473267,0,5.3838501,2.3132935,5.3838501,5.5396118  c0,2.5805054-1.2680664,4.0931396-2.4039307,4.0713501c-0.7336426-0.022644-0.999939-0.8006592-0.666626-2.4916992  l0.7554321-4.0270386c-0.5778809-0.2672119-1.4238892-0.4673462-2.3803711-0.4673462  c-3.0922241,0-5.2714844,2.5144043-5.2714844,5.2733154c0,1.7572021,1.1122437,2.8024292,2.4020386,2.8024292  c1.335083,0,2.3586426-0.6448975,3.1375732-1.9573364H36.69104c-0.0670166,1.3568115,0.7554321,1.9573364,1.6466675,1.9573364  c2.0905151,0,3.960022-1.9573364,3.960022-5.2941895c0-3.7153931-2.6031494-6.4299927-6.4743652-6.4299927  c-4.9400635,0-8.1210938,3.960022-8.1210938,8.5431519C27.7022705,34.8399048,30.7945557,37.5100708,34.4429321,37.5100708z   M36.7127686,29.5231323c-0.2445068,1.37854-1.4238281,3.0252075-2.713623,3.0252075  c-0.9800415,0-1.4691772-0.7119141-1.4691772-1.69104c0-2.1575317,1.5796509-4.0043945,3.5379028-4.0043945  c0.5108643,0,0.8894653,0.0888062,1.1123047,0.1558228L36.7127686,29.5231323z"/><text x="0" y="85" fill="#000000" font-size="5px" font-weight="bold" font-family="'Helvetica Neue', Helvetica, Arial-Unicode, Arial, Sans-serif">Created by Vectorstall</text><text x="0" y="90" fill="#000000" font-size="5px" font-weight="bold" font-family="'Helvetica Neue', Helvetica, Arial-Unicode, Arial, Sans-serif">from the Noun Project</text></svg>