<svg xmlns="http://www.w3.org/2000/svg" viewBox="0 0 24 30" x="0px" y="0px"><title>text size increase_1</title><path d="M12,19H11V5h3V6a1,1,0,0,0,2,0V4a1,1,0,0,0-1-1H5A1,1,0,0,0,4,4V6A1,1,0,0,0,6,6V5H9V19H8a1,1,0,0,0,0,2h4a1,1,0,0,0,0-2Zm7.707-5.707-2-2a.99962.99962,0,0,0-1.41406,0l-2,2A.99989.99989,0,0,0,15.707,14.707L17,13.41406l1.293,1.293A.99989.99989,0,0,0,19.707,13.293Z"/><text x="0" y="39" fill="#000000" font-size="5px" font-weight="bold" font-family="'Helvetica Neue', Helvetica, Arial-Unicode, Arial, Sans-serif">Created by kreationspace</text><text x="0" y="44" fill="#000000" font-size="5px" font-weight="bold" font-family="'Helvetica Neue', Helvetica, Arial-Unicode, Arial, Sans-serif">from the Noun Project</text></svg>