<svg xmlns="http://www.w3.org/2000/svg" data-name="Layer 1" viewBox="0 0 512 640" x="0px" y="0px"><title>Artboard 29</title><path d="M283,207a6,6,0,0,0,6-6V183a6,6,0,0,0-6-6H230a6,6,0,0,0-6,6v18a6,6,0,0,0,6,6Zm-47-18h41v7H236Z"/><path d="M312.909,132.4a5.9,5.9,0,0,0-5.979-5.4H285v-5.778a28.5,28.5,0,0,0-57,0V127H205.968a5.783,5.783,0,0,0-5.975,5.2l-1.417,15.25A6,6,0,0,0,204.549,154h.012a6,6,0,0,0,5.972-5.432l.909-9.568H228v15.4a6,6,0,0,0,12,0V139h33v15.4a6,6,0,0,0,12,0V139h16.406l7.091,85H203.537l3.307-35.7a5.8,5.8,0,0,0-5.974-6.3,6,6,0,0,0-5.974,5.452L191.018,229.8a6.308,6.308,0,0,0,.4,2.828l8.278,20.75A5.844,5.844,0,0,0,205.271,257H307.626a5.815,5.815,0,0,0,5.658-3.793l7.381-20.819a5.524,5.524,0,0,0,.322-2.385ZM273,127H240v-5.778a16.5,16.5,0,0,1,33,0Zm30.38,118H209.35l-3.378-9h100.47Z"/><path d="M352.161,85.816a135.993,135.993,0,0,0-192.322,0c-53.023,53.023-53.05,139.3-.027,192.322A134.14,134.14,0,0,0,238,316.716V330H225.546c-3.314,0-5.546,2.583-5.546,5.9V473.675a36,36,0,1,0,72,0V335.9A5.749,5.749,0,0,0,286.2,330H274V316.716a134.14,134.14,0,0,0,78.188-38.578C405.211,225.114,405.184,138.839,352.161,85.816ZM280,473.675a24,24,0,1,1-48,0V473h48ZM280,461H232v-9h48Zm0-119v98H232V342Zm-30-12V317.77c2,.086,4.018.135,6,.135s4-.049,6-.135V330Zm93.675-60.348a123.992,123.992,0,1,1,0-175.35A123.581,123.581,0,0,1,343.675,269.652Z"/><path d="M337.462,100.515a115.151,115.151,0,1,0,0,162.923A115.336,115.336,0,0,0,337.462,100.515Zm-8.486,154.438a103.156,103.156,0,1,1,0-145.953A103.321,103.321,0,0,1,328.976,254.953Z"/><path d="M261,28V8a6,6,0,0,0-12,0V28a6,6,0,0,0,12,0Z"/><path d="M411,177a6,6,0,0,0,0,12h19a6,6,0,0,0,0-12Z"/><path d="M82,177a6,6,0,0,0,0,12h19a6,6,0,0,0,0-12Z"/><path d="M369.343,77.588l14.078-14.077a6,6,0,0,0-8.485-8.485L360.858,69.1a6,6,0,1,0,8.485,8.485Z"/><path d="M142.657,287.3l-14.078,14.078a6,6,0,1,0,8.485,8.485l14.078-14.077a6,6,0,0,0-8.485-8.486Z"/><path d="M360.858,287.3a6,6,0,0,0,0,8.486l14.078,14.077a6,6,0,0,0,8.485-8.485L369.343,287.3A6,6,0,0,0,360.858,287.3Z"/><path d="M146.9,79.346A6,6,0,0,0,151.142,69.1L137.064,55.026a6,6,0,0,0-8.485,8.485l14.078,14.077A5.979,5.979,0,0,0,146.9,79.346Z"/><path d="M247,369a6,6,0,0,0,6-6v-7a6,6,0,0,0-12,0v7A6,6,0,0,0,247,369Z"/><path d="M247,429a6,6,0,0,0,6-6V382a6,6,0,0,0-12,0v41A6,6,0,0,0,247,429Z"/><text x="0" y="527" fill="#000000" font-size="5px" font-weight="bold" font-family="'Helvetica Neue', Helvetica, Arial-Unicode, Arial, Sans-serif">Created by Icongeek26</text><text x="0" y="532" fill="#000000" font-size="5px" font-weight="bold" font-family="'Helvetica Neue', Helvetica, Arial-Unicode, Arial, Sans-serif">from the Noun Project</text></svg>